<svg viewBox="0 0 32 32" xmlns="http://www.w3.org/2000/svg">
  <path d="M11 21H9v-2a3.003 3.003 0 0 1 3-3h6v2h-6a1.001 1.001 0 0 0-1 1ZM15 15a4 4 0 1 1 4-4 4.005 4.005 0 0 1-4 4Zm0-6a2 2 0 1 0 2 2 2.002 2.002 0 0 0-2-2ZM24 22a4 4 0 1 1 4-4 4.005 4.005 0 0 1-4 4Zm0-6a2 2 0 1 0 2 2 2.002 2.002 0 0 0-2-2ZM30 28h-2v-2a1.001 1.001 0 0 0-1-1h-6a1.001 1.001 0 0 0-1 1v2h-2v-2a3.003 3.003 0 0 1 3-3h6a3.003 3.003 0 0 1 3 3Z" fill="#ececec" class="fill-000000"/>
  <path d="m14 27.733-5.234-2.79A8.986 8.986 0 0 1 4 17V4h20v6h2V4a2.002 2.002 0 0 0-2-2H4a2.002 2.002 0 0 0-2 2v13a10.981 10.981 0 0 0 5.824 9.707L14 30Z" fill="#ececec" class="fill-000000"/>
  <path data-name="Transparent Rectangle" d="M0 0h32v32H0z" fill="none"/>
</svg>
