<svg viewBox="0 0 64 64" xml:space="preserve" xmlns="http://www.w3.org/2000/svg"><g fill="#212121" class="fill-241f20"><path d="M62.465 29.88h.002l-15.094 5.195c-2.746.946-2.977-.06-2.99-.336v-4.271c0-2.638-1.729-4.78-3.861-4.78H3.899c-2.132 0-3.862 2.143-3.862 4.78v27.465c0 2.638 1.73 4.779 3.862 4.779h36.622c2.133 0 3.861-2.142 3.861-4.779v-2.885c.012-.225.229-1.012 2.779-.405l15.59 3.712c.562.177 1.211.136 1.211-1.019V31.013c.001-1.548-1.026-1.321-1.497-1.133zm-2.069 22.556c0 1.449-.947 1.528-1.508 1.452l-.396-.087h-.008l-15.059-3.22c-2.75-.586-2.98 1.172-2.996 1.633v1.31c0 2.912-2.383 5.272-5.324 5.272H9c-2.939 0-5.324-2.36-5.324-5.272V34.632c0-2.91 2.385-5.271 5.324-5.271h26.105c2.941 0 5.324 2.36 5.324 5.271v4.326c.055.665.424 1.751 2.393 1.126l15.926-5.044c.529-.135 1.648-.235 1.648 1.35v16.046zM10.399 22.007c5.721 0 10.359-4.638 10.359-10.36 0-5.722-4.638-10.359-10.359-10.359C4.677 1.288.038 5.926.038 11.647c0 5.722 4.639 10.36 10.361 10.36zm0-16.405a6.044 6.044 0 0 1 6.045 6.045 6.043 6.043 0 0 1-6.045 6.045 6.043 6.043 0 0 1-6.045-6.045 6.044 6.044 0 0 1 6.045-6.045zM34.062 22.007c5.719 0 10.359-4.638 10.359-10.36 0-5.722-4.641-10.359-10.359-10.359-5.723 0-10.361 4.638-10.361 10.359 0 5.722 4.638 10.36 10.361 10.36zm-.001-16.405a6.044 6.044 0 0 1 6.045 6.045c0 3.34-2.705 6.045-6.045 6.045s-6.045-2.705-6.045-6.045a6.043 6.043 0 0 1 6.045-6.045z"></path></g></svg>