<svg viewBox="0 0 32 32" xmlns="http://www.w3.org/2000/svg">
  <path d="M8 19H6v-2a3.003 3.003 0 0 1 3-3h5v2H9a1.001 1.001 0 0 0-1 1ZM12 13a4 4 0 1 1 4-4 4.005 4.005 0 0 1-4 4Zm0-6a2 2 0 1 0 2 2 2.002 2.002 0 0 0-2-2ZM20 20a4 4 0 1 1 4-4 4.005 4.005 0 0 1-4 4Zm0-6a2 2 0 1 0 2 2 2.002 2.002 0 0 0-2-2ZM26 26h-2v-2a1.001 1.001 0 0 0-1-1h-6a1.001 1.001 0 0 0-1 1v2h-2v-2a3.003 3.003 0 0 1 3-3h6a3.003 3.003 0 0 1 3 3Z" fill="#ececec" class="fill-000000"/>
  <path d="M8 30H4a2.002 2.002 0 0 1-2-2V4a2.002 2.002 0 0 1 2-2h4v2H4v24h4ZM28 30h-4v-2h4V4h-4V2h4a2.002 2.002 0 0 1 2 2v24a2.002 2.002 0 0 1-2 2Z" fill="#212121" class="fill-000000"/>
  <path data-name="Transparent Rectangle" d="M0 0h32v32H0z" fill="none"/>
</svg>
