<svg viewBox="0 0 24 24" xmlns="http://www.w3.org/2000/svg"><path d="M23 7a2 2 0 0 1-2-2 1 1 0 0 0-1-1H4a1 1 0 0 0-1 1 2 2 0 0 1-2 2 1 1 0 0 0-1 1v9a1 1 0 0 0 1 1 2 2 0 0 1 2 2 1 1 0 0 0 1 1h16a1 1 0 0 0 1-1 2 2 0 0 1 2-2 1 1 0 0 0 1-1V8a1 1 0 0 0-1-1Zm-3.87 12H4.87A4 4 0 0 0 2 16.13V8.87A4 4 0 0 0 4.87 6h14.26A4 4 0 0 0 22 8.86v7.28A4 4 0 0 0 19.13 19Z" fill="#14a27f" class="fill-000000"></path><path d="M8 7a1 1 0 0 0 0 2 1 1 0 0 0 0-2ZM8 10a1 1 0 0 0 0 2 1 1 0 0 0 0-2ZM8 13a1 1 0 0 0 0 2 1 1 0 0 0 0-2ZM8 16a1 1 0 0 0 0 2 1 1 0 0 0 0-2ZM16.58 11.3 15.5 9l-1.08 2.3-2.42.37 1.75 1.8-.41 2.53 2.16-1.2 2.16 1.2-.41-2.53 1.75-1.8-2.42-.37z" fill="#14a27f" class="fill-000000"></path></svg>